<?xml version="1.0" encoding="utf-8"?>
<!-- Generator: Adobe Illustrator 25.0.1, SVG Export Plug-In . SVG Version: 6.00 Build 0)  -->
<svg version="1.1" id="Calque_1" xmlns="http://www.w3.org/2000/svg" xmlns:xlink="http://www.w3.org/1999/xlink" x="0px" y="0px"
	 viewBox="0 0 20.5 20.6" style="enable-background:new 0 0 20.5 20.6;" xml:space="preserve">
<style type="text/css">
	.st0{fill:#FFA300;}
	.st1{fill:#020203;}
</style>
<g>
	<g>
		<path class="st0" d="M17.6,10.5c4.1-1.9,2.4-8.1-2.1-7.7C12.4-0.1,7.6,0,4.6,3c-3.8,0.3-5.1,5.2-2,7.4C3,11.8,3.7,13,4.8,14
			c-1.2,0.8-2.5,2.6-2.5,2.6c-0.7-0.6-1.1,0-0.8,0.7c0.5,1.1,2,0.8,1.3-0.2c0.7-1,1.6-1.8,2.5-2.6C6.4,15.3,7.6,15.8,9,16
			C9,17,8.9,17.9,8.6,18.8c-1.2,0.1-0.5,1.4,0.7,1.1c0.8-0.2,1-0.8,0.1-1c0,0,0.5-1.8,0.5-2.8c1.7,0.1,3.3-0.4,4.6-1.3
			c1,0.8,1.8,1.6,2.6,2.6c-0.7,1,0.8,1.3,1.3,0.2c0.3-0.7,0-1.3-0.8-0.7c0,0-1.3-1.7-2.5-2.6C16.2,13.4,17.1,12,17.6,10.5z M4.9,3.4
			c4.8,0,4.8,7.3,0,7.3S0.1,3.4,4.9,3.4z M19.5,6.9c0,4.8-7.3,4.8-7.3,0C12.1,2.1,19.5,2,19.5,6.9z"/>
	</g>
	<g>
		<path class="st1" d="M4.7,3.8c-0.9,0-1.6,1.4-1.6,3.1S3.9,10,4.7,10s1.6-1.4,1.6-3.1C6.3,5.2,5.6,3.8,4.7,3.8z M4.4,5.9
			C4.1,5.7,4.3,5.2,4.6,5.1C4.7,5,4.9,5.1,4.9,5.3c0,0.1,0,0.2-0.1,0.3c0,0,0,0.1,0,0.1C4.8,5.9,4.6,5.9,4.4,5.9z M5.4,7.1
			c0,0.1-0.1,0.2-0.2,0.3C5.1,7.5,5,7.4,4.9,7.4C4.8,7.2,4.8,6.9,4.9,6.7c0,0,0-0.1,0.1-0.1C5,6.6,5,6.5,5.1,6.5
			C5.4,6.6,5.4,6.9,5.4,7.1z"/>
		<path class="st1" d="M15.8,3.8c-0.9,0-1.6,1.4-1.6,3.1S15,10,15.8,10s1.6-1.4,1.6-3.1S16.7,3.8,15.8,3.8z M15.6,7.4
			c-0.1,0.1-0.2,0.1-0.3,0.1c-0.1-0.1-0.1-0.2-0.2-0.3c0-0.2,0-0.6,0.2-0.6c0.1,0,0.2,0,0.2,0.1c0,0,0.1,0.1,0.1,0.1
			C15.7,6.9,15.8,7.2,15.6,7.4z M16.2,5.9C16,6,15.8,5.9,15.7,5.8c0,0,0-0.1,0-0.1c-0.1-0.1-0.1-0.2-0.1-0.3c0-0.2,0.2-0.3,0.3-0.2
			C16.2,5.2,16.4,5.7,16.2,5.9z"/>
		<path class="st1" d="M13.9,12c-0.2,0.5-0.6,0.9-1.1,1.1c-0.2,0.1-0.1,0.4,0.1,0.3c0.6-0.2,1.1-0.7,1.4-1.3
			C14.3,11.9,13.9,11.8,13.9,12z"/>
	</g>
</g>
</svg>
